<?xml version="1.0" standalone="no"?>
<!DOCTYPE svg PUBLIC "-//W3C//DTD SVG 20010904//EN"
 "http://www.w3.org/TR/2001/REC-SVG-20010904/DTD/svg10.dtd">
<svg version="1.0" xmlns="http://www.w3.org/2000/svg"
 width="128.000000pt" height="128.000000pt" viewBox="0 0 128.000000 128.000000"
 preserveAspectRatio="xMidYMid meet">
<metadata>
Created by potrace 1.14, written by Peter Selinger 2001-2017
</metadata>
<g transform="translate(0.000000,128.000000) scale(0.100000,-0.100000)"
fill="#000000" stroke="none">
<path d="M0 640 l0 -640 640 0 640 0 0 640 0 640 -640 0 -640 0 0 -640z m381
444 c96 -48 115 -176 38 -253 -102 -103 -271 -31 -271 115 0 120 123 193 233
138z m664 3 c55 -27 87 -79 87 -142 0 -109 -101 -186 -202 -156 -50 15 -96 61
-111 111 -39 129 104 247 226 187z m-425 -327 c13 -7 30 -5 60 9 72 32 150 -2
150 -67 0 -41 -46 -107 -95 -138 l-45 -29 0 -83 c0 -124 34 -182 107 -182 43
0 60 27 70 109 9 70 29 95 60 75 25 -15 29 -114 8 -169 -42 -112 -160 -139
-253 -59 l-42 36 -42 -36 c-93 -80 -211 -53 -253 59 -21 55 -17 154 8 169 31
20 51 -5 60 -75 10 -82 27 -109 70 -109 73 0 107 58 107 182 l0 83 -45 29
c-49 31 -95 97 -95 138 0 72 88 102 170 58z"/>
</g>
</svg>
