<?xml version="1.0" encoding="UTF-8" standalone="no"?><!DOCTYPE svg PUBLIC "-//W3C//DTD SVG 1.1//EN" "http://www.w3.org/Graphics/SVG/1.1/DTD/svg11.dtd"><svg width="100%" height="100%" viewBox="0 0 592 180" version="1.1" xmlns="http://www.w3.org/2000/svg" xmlns:xlink="http://www.w3.org/1999/xlink" xml:space="preserve" xmlns:serif="http://www.serif.com/" style="fill-rule:evenodd;clip-rule:evenodd;stroke-linejoin:round;stroke-miterlimit:2;"><rect id="Artboard1" x="0" y="0" width="591.063" height="180" style="fill:none;"/><path d="M266.137,146.839c-7.604,0 -13.768,-6.164 -13.768,-13.768c0,-15.897 0,-39.887 0,-39.887c0,-0 -6.803,11.854 -11.507,20.051c-2.712,4.727 -7.746,7.642 -13.196,7.642c-0,-0 -0.001,-0 -0.001,-0c-5.45,-0 -10.484,-2.915 -13.196,-7.642c-4.704,-8.197 -11.507,-20.051 -11.507,-20.051l0,39.887c0,7.604 -6.164,13.768 -13.768,13.768c0,0 0,0 0,0c-3.651,0 -7.153,-1.45 -9.735,-4.032c-2.582,-2.582 -4.033,-6.084 -4.033,-9.736c0,-20.432 0,-58.757 0,-81.026c0,-4.572 1.816,-8.956 5.049,-12.188c3.232,-3.233 7.616,-5.049 12.188,-5.049c-0,0 0,0 0,0c6.03,0 11.551,3.383 14.288,8.756c7.232,14.192 20.715,40.651 20.715,40.651c-0,0 13.482,-26.459 20.714,-40.651c2.737,-5.373 8.258,-8.756 14.288,-8.756c-0,0 0,0 0,0c4.572,0 8.956,1.816 12.188,5.049c3.233,3.232 5.049,7.616 5.049,12.188c-0,22.269 -0,60.594 -0,81.026c-0,3.652 -1.451,7.154 -4.033,9.736c-2.582,2.582 -6.084,4.032 -9.735,4.032c-0,0 -0,0 -0,0Z" style="fill:#fff;fill-rule:nonzero;"/><path d="M385.642,107.502c0,6.085 -1.128,11.618 -3.383,16.601c-2.255,4.982 -5.323,9.231 -9.205,12.745c-3.881,3.514 -8.392,6.215 -13.532,8.103c-5.14,1.888 -10.647,2.832 -16.521,2.832c-5.769,0 -11.224,-0.944 -16.364,-2.832c-5.14,-1.888 -9.651,-4.589 -13.532,-8.103c-3.881,-3.514 -6.923,-7.763 -9.126,-12.745c-2.203,-4.983 -3.304,-10.516 -3.304,-16.601l-0,-58.926c-0,-7.604 6.164,-13.768 13.767,-13.768l0.001,0c3.651,0 7.153,1.451 9.735,4.033c2.582,2.582 4.032,6.083 4.032,9.735c0,20.917 0,58.297 0,58.297c0,5.245 1.312,9.284 3.934,12.116c2.623,2.832 6.241,4.248 10.857,4.248c4.616,0 8.287,-1.416 11.014,-4.248c2.728,-2.832 4.091,-6.871 4.091,-12.116l0,-58.297c0,-3.652 1.451,-7.153 4.033,-9.735c2.582,-2.582 6.084,-4.033 9.735,-4.033c0,0 0,0 0,0c7.604,0 13.768,6.164 13.768,13.768l0,58.926Z" style="fill:#fff;fill-rule:nonzero;"/><path d="M454.875,59.354l-0,73.717c-0,3.652 -1.451,7.154 -4.033,9.736c-2.582,2.582 -6.084,4.032 -9.735,4.032c-0,0 -0,0 -0,0c-3.652,0 -7.153,-1.45 -9.735,-4.032c-2.582,-2.582 -4.033,-6.084 -4.033,-9.736c0,-24.637 0,-73.717 0,-73.717l-15.263,0c-3.255,0 -6.377,-1.293 -8.678,-3.594c-2.302,-2.302 -3.595,-5.424 -3.595,-8.678c0,-0.001 0,-0.001 0,-0.001c0,-6.778 5.495,-12.273 12.273,-12.273c15.619,0 42.443,0 58.062,0c6.778,0 12.273,5.495 12.273,12.273c-0,0 -0,0 -0,0.001c-0,3.254 -1.293,6.376 -3.595,8.678c-2.302,2.301 -5.423,3.594 -8.678,3.594c-7.344,0 -15.263,0 -15.263,0Z" style="fill:#fff;fill-rule:nonzero;"/><path d="M546.923,59.354l-0,73.717c-0,3.652 -1.451,7.154 -4.033,9.736c-2.582,2.582 -6.083,4.032 -9.735,4.032c0,0 0,0 0,0c-3.651,0 -7.153,-1.45 -9.735,-4.032c-2.582,-2.582 -4.033,-6.084 -4.033,-9.736c0,-24.637 0,-73.717 0,-73.717l-15.263,0c-3.255,0 -6.376,-1.293 -8.678,-3.594c-2.302,-2.302 -3.595,-5.424 -3.595,-8.678c0,-0.001 0,-0.001 0,-0.001c0,-6.778 5.495,-12.273 12.273,-12.273c15.619,0 42.443,0 58.062,0c6.778,0 12.273,5.495 12.273,12.273c-0,0 -0,0 -0,0.001c-0,3.254 -1.293,6.376 -3.595,8.678c-2.301,2.301 -5.423,3.594 -8.678,3.594c-7.344,0 -15.263,0 -15.263,0Z" style="fill:#fff;fill-rule:nonzero;"/><path d="M81.86,75.34c5.271,-7.511 15.813,-7.511 21.085,-3.755c5.271,3.755 5.271,11.267 -0,18.778c-3.69,5.633 -13.178,11.267 -21.085,15.022c-7.906,-3.755 -17.394,-9.389 -21.084,-15.022c-5.271,-7.511 -5.271,-15.023 0,-18.778c5.271,-3.756 15.813,-3.756 21.084,3.755Z" style="fill:#ff005c;"/><path d="M75.36,90c-0,-3.588 2.913,-6.5 6.5,-6.5c3.588,-0 6.501,2.912 6.501,6.5c-0,0 0.006,28.612 0.007,28.634c0,0.001 0,0.002 0,0.003c0.52,8.174 4.174,14.14 8.886,16.959c2.434,1.455 5.114,2.042 7.486,1.244c2.393,-0.804 4.217,-3.021 5.313,-6.415c1.027,-3.18 1.381,-7.225 0.954,-12.187c-0.307,-3.575 2.346,-6.726 5.92,-7.033c3.575,-0.308 6.726,2.345 7.034,5.919c1.663,19.347 -6.334,29.098 -15.076,32.039c-13.163,4.427 -32.238,-6.538 -33.516,-30.113c-0.006,-0.117 -0.009,-0.235 -0.009,-0.352c-0,0 -0,-28.698 -0,-28.698Z" style="fill:#ff005c;"/><path d="M75.36,90c-0,-3.588 2.913,-6.5 6.5,-6.5c3.588,-0 6.501,2.912 6.501,6.5l-0,28.698c-0,0.117 -0.003,0.235 -0.01,0.352c-1.277,23.575 -20.352,34.54 -33.515,30.113c-8.742,-2.941 -16.739,-12.692 -15.076,-32.039c0.308,-3.574 3.459,-6.227 7.034,-5.919c3.574,0.307 6.227,3.458 5.92,7.033c-0.427,4.962 -0.073,9.007 0.954,12.187c1.096,3.394 2.92,5.611 5.313,6.415c2.372,0.798 5.052,0.211 7.486,-1.244c4.713,-2.82 8.369,-8.789 8.887,-16.982c0.004,-0.065 0.006,-0.13 0.006,-0.195l-0,-28.419Z" style="fill:#ff005c;"/><circle cx="37.756" cy="47.965" r="21.153" style="fill:#ff005c;"/><circle cx="125.964" cy="47.965" r="21.153" style="fill:#ff005c;"/></svg>